<svg width="18" height="20" viewBox="0 0 18 20" fill="none" xmlns="http://www.w3.org/2000/svg">
<path d="M15.0193 2.47771C13.4243 0.891261 11.2609 -1.6716e-08 9.00521 0C6.74948 1.6716e-08 4.58615 0.891261 2.99112 2.47771C1.39608 4.06417 0.5 6.21586 0.5 8.45945C0.5 10.703 1.39608 12.8547 2.99112 14.4412L8.27349 19.7051C8.36667 19.7985 8.47753 19.8727 8.59968 19.9233C8.72182 19.9739 8.85284 20 8.98516 20C9.11748 20 9.24849 19.9739 9.37064 19.9233C9.49278 19.8727 9.60364 19.7985 9.69683 19.7051L15.0193 14.3913C16.6077 12.8115 17.5 10.6688 17.5 8.43452C17.5 6.20029 16.6077 4.05757 15.0193 2.47771ZM13.5859 12.9657L9.00521 17.5417L4.42447 12.9657C3.5195 12.0648 2.90339 10.9172 2.65402 9.66805C2.40466 8.41891 2.53323 7.12427 3.0235 5.9478C3.51376 4.77132 4.3437 3.76583 5.40841 3.05842C6.47312 2.35101 7.72479 1.97344 9.00521 1.97344C10.2856 1.97344 11.5373 2.35101 12.602 3.05842C13.6667 3.76583 14.4966 4.77132 14.9869 5.9478C15.4772 7.12427 15.6058 8.41891 15.3564 9.66805C15.107 10.9172 14.4909 12.0648 13.5859 12.9657ZM5.99816 5.39879C5.18898 6.2061 4.7346 7.29956 4.7346 8.43951C4.7346 9.57946 5.18898 10.6729 5.99816 11.4802C6.59933 12.0792 7.36495 12.4882 8.19897 12.656C9.03298 12.8238 9.89825 12.7429 10.6862 12.4235C11.4742 12.104 12.1498 11.5603 12.6282 10.8604C13.1066 10.1605 13.3666 9.33564 13.3754 8.48936C13.38 7.92429 13.2705 7.36405 13.0536 6.84177C12.8367 6.3195 12.5167 5.84578 12.1125 5.44864C11.7152 5.04446 11.2415 4.7224 10.7186 4.501C10.1958 4.27961 9.63402 4.16324 9.06575 4.15861C8.49748 4.15398 7.93389 4.26117 7.40743 4.47401C6.88097 4.68685 6.40203 5.00114 5.99816 5.39879ZM10.6992 10.0645C10.3193 10.4481 9.81732 10.6885 9.27897 10.7447C8.74063 10.8009 8.19938 10.6693 7.74777 10.3725C7.29615 10.0757 6.96222 9.63211 6.80305 9.11752C6.64389 8.60293 6.66938 8.04934 6.87517 7.55137C7.08096 7.05341 7.45427 6.64201 7.93127 6.38751C8.40828 6.13301 8.95935 6.05121 9.49028 6.1561C10.0212 6.26099 10.499 6.54605 10.842 6.96255C11.185 7.37905 11.3719 7.90112 11.3707 8.43951C11.3562 9.0549 11.0966 9.63937 10.6491 10.0645H10.6992Z" fill="#262626"/>
</svg>
